<?xml version="1.0" ?><svg id="cusomize-refine-scale-range" style="enable-background:new 0 0 16 13;" version="1.1" viewBox="0 0 16 13" xml:space="preserve" xmlns="http://www.w3.org/2000/svg" xmlns:xlink="http://www.w3.org/1999/xlink"><rect style="fill:#84868d" height="1" width="4" x="12" y="6"/><path style="fill:#84868d" d="M11,8c0.827,0,1.5-0.673,1.5-1.5S11.827,5,11,5c-0.651,0-1.201,0.419-1.408,1H0v1h9.592C9.799,7.581,10.349,8,11,8z M11,6  c0.276,0,0.5,0.224,0.5,0.5S11.276,7,11,7s-0.5-0.224-0.5-0.5S10.724,6,11,6z"/><path style="fill:#84868d" d="M6,10c-0.651,0-1.201,0.419-1.408,1H0v1h4.592C4.799,12.581,5.349,13,6,13s1.201-0.419,1.408-1H16v-1H7.408  C7.201,10.419,6.651,10,6,10z M6,12c-0.276,0-0.5-0.224-0.5-0.5S5.724,11,6,11s0.5,0.224,0.5,0.5S6.276,12,6,12z"/><path style="fill:#84868d" d="M4.408,1C4.201,0.419,3.651,0,3,0S1.799,0.419,1.592,1H0v1h1.592C1.799,2.581,2.349,3,3,3s1.201-0.419,1.408-1H16V1H4.408z   M3,2C2.724,2,2.5,1.776,2.5,1.5S2.724,1,3,1s0.5,0.224,0.5,0.5S3.276,2,3,2z"/></svg>