<?xml version="1.0" encoding="iso-8859-1"?>
<!-- Generator: Adobe Illustrator 16.0.0, SVG Export Plug-In . SVG Version: 6.00 Build 0)  -->
<!DOCTYPE svg PUBLIC "-//W3C//DTD SVG 1.1//EN" "http://www.w3.org/Graphics/SVG/1.1/DTD/svg11.dtd">
<svg version="1.1" id="Capa_1" xmlns="http://www.w3.org/2000/svg" xmlns:xlink="http://www.w3.org/1999/xlink" x="0px" y="0px"
	 width="33px" height="33px" viewBox="0 0 33 33" style="enable-background:new 0 0 33 33;" xml:space="preserve">
<g>
	<path style="fill:#99a1b3" d="M16.5,0C7.402,0,0,7.402,0,16.5C0,25.598,7.402,33,16.5,33C25.598,33,33,25.598,33,16.5C33,7.402,25.598,0,16.5,0z
		 M16.5,29C9.607,29,4,23.393,4,16.5C4,9.607,9.607,4,16.5,4C23.393,4,29,9.607,29,16.5C29,23.393,23.393,29,16.5,29z M18.969,7.969
		v9.938c0,1.104-0.896,2-2,2h-6.938c-1.104,0-2-0.896-2-2c0-1.104,0.896-2,2-2h4.938V7.969c0-1.104,0.896-2,2-2
		S18.969,6.863,18.969,7.969z"/>
</g>
<g>
</g>
<g>
</g>
<g>
</g>
<g>
</g>
<g>
</g>
<g>
</g>
<g>
</g>
<g>
</g>
<g>
</g>
<g>
</g>
<g>
</g>
<g>
</g>
<g>
</g>
<g>
</g>
<g>
</g>
</svg>
